<svg width="87" height="16" viewBox="0 0 87 16" fill="none" xmlns="http://www.w3.org/2000/svg">
<path d="M10.3179 2.256C10.2339 3.276 10.1919 4.188 10.1919 4.992C10.1919 5.556 10.2099 6.012 10.2459 6.36H9.8319C9.5919 5.004 9.2319 4.05 8.7519 3.498C8.2719 2.946 7.5999 2.67 6.7359 2.67H6.1419C5.7699 2.67 5.4999 2.7 5.3319 2.76C5.1639 2.82 5.0499 2.94 4.9899 3.12C4.9299 3.288 4.8999 3.564 4.8999 3.948V8.484H5.5299C6.1659 8.484 6.6459 8.25 6.9699 7.782C7.3059 7.314 7.5399 6.756 7.6719 6.108H8.0859C8.0499 6.612 8.0319 7.176 8.0319 7.8V8.664C8.0319 9.276 8.0679 10.128 8.1399 11.22H7.7259C7.4739 9.636 6.7419 8.844 5.5299 8.844H4.8999V12.984C4.8999 13.464 4.9479 13.818 5.0439 14.046C5.1519 14.262 5.3319 14.406 5.5839 14.478C5.8479 14.55 6.2619 14.592 6.8259 14.604V15C5.3499 14.964 4.2519 14.946 3.5319 14.946C2.9319 14.946 2.1759 14.958 1.2639 14.982L0.687897 15V14.64C1.0839 14.616 1.3719 14.568 1.5519 14.496C1.7439 14.424 1.8699 14.286 1.9299 14.082C2.0019 13.878 2.0379 13.548 2.0379 13.092V4.164C2.0379 3.708 2.0019 3.378 1.9299 3.174C1.8699 2.97 1.7439 2.832 1.5519 2.76C1.3719 2.688 1.0839 2.64 0.687897 2.616V2.256C1.9839 2.292 3.9399 2.31 6.5559 2.31C8.3199 2.31 9.5739 2.292 10.3179 2.256ZM14.8716 13.326C14.8716 13.818 14.9556 14.16 15.1236 14.352C15.2916 14.532 15.5916 14.622 16.0236 14.622V15C14.7756 14.952 13.9716 14.928 13.6116 14.928C13.2036 14.928 12.3756 14.952 11.1276 15V14.622C11.5476 14.622 11.8416 14.532 12.0096 14.352C12.1896 14.16 12.2796 13.818 12.2796 13.326V3.066C12.2796 2.514 12.1896 2.112 12.0096 1.86C11.8416 1.608 11.5476 1.482 11.1276 1.482V1.104C11.5116 1.14 11.8836 1.158 12.2436 1.158C13.2876 1.158 14.1636 1.074 14.8716 0.905999V13.326ZM25.9335 13.038C25.9335 13.59 26.0175 13.992 26.1855 14.244C26.3655 14.496 26.6655 14.622 27.0855 14.622V15C26.7135 14.964 26.3415 14.946 25.9695 14.946C24.9255 14.946 24.0495 15.03 23.3415 15.198V13.578C22.7895 14.694 21.8235 15.252 20.4435 15.252C19.5435 15.252 18.8895 15.018 18.4815 14.55C18.2895 14.322 18.1455 14.028 18.0495 13.668C17.9655 13.296 17.9235 12.81 17.9235 12.21V7.656C17.9235 7.104 17.8335 6.702 17.6535 6.45C17.4855 6.198 17.1915 6.072 16.7715 6.072V5.694C17.1435 5.73 17.5155 5.748 17.8875 5.748C18.9315 5.748 19.8075 5.664 20.5155 5.496V12.948C20.5155 13.452 20.5875 13.83 20.7315 14.082C20.8875 14.334 21.1755 14.46 21.5955 14.46C22.0755 14.46 22.4835 14.262 22.8195 13.866C23.1675 13.458 23.3415 12.96 23.3415 12.372V7.656C23.3415 7.104 23.2515 6.702 23.0715 6.45C22.9035 6.198 22.6095 6.072 22.1895 6.072V5.694C22.5735 5.73 22.9455 5.748 23.3055 5.748C24.3495 5.748 25.2255 5.664 25.9335 5.496V13.038ZM40.6475 1.518C40.8275 1.662 40.9715 1.854 41.0795 2.094C41.1995 2.322 41.2595 2.58 41.2595 2.868C41.2595 3.204 41.1395 3.498 40.8995 3.75C40.6595 3.99 40.3535 4.11 39.9815 4.11C39.5735 4.11 39.2435 3.996 38.9915 3.768C38.7395 3.54 38.6135 3.228 38.6135 2.832C38.6135 2.52 38.7035 2.244 38.8835 2.004C39.0635 1.764 39.3275 1.596 39.6755 1.5C39.6395 1.428 39.5615 1.368 39.4415 1.32C39.3335 1.272 39.1955 1.248 39.0275 1.248C38.5715 1.248 38.2475 1.404 38.0555 1.716C37.9235 1.896 37.8335 2.16 37.7855 2.508C37.7375 2.856 37.7135 3.378 37.7135 4.074V5.712H39.6395V6.072H37.7135V13.146C37.7135 13.698 37.8515 14.082 38.1275 14.298C38.4155 14.514 38.8415 14.622 39.4055 14.622V15L38.9015 14.982C37.5695 14.946 36.7055 14.928 36.3095 14.928C35.9495 14.928 35.1695 14.952 33.9695 15V14.622C34.4015 14.622 34.7015 14.532 34.8695 14.352C35.0375 14.16 35.1215 13.818 35.1215 13.326V6.072H31.8635V13.326C31.8635 13.818 31.9475 14.16 32.1155 14.352C32.2835 14.532 32.5835 14.622 33.0155 14.622V15L32.6195 14.982C31.5755 14.946 30.9155 14.928 30.6395 14.928C30.2315 14.928 29.3555 14.952 28.0115 15V14.622C28.4795 14.622 28.8035 14.532 28.9835 14.352C29.1755 14.16 29.2715 13.818 29.2715 13.326V6.072H27.9395V5.712H29.2715C29.2715 5.064 29.3675 4.476 29.5595 3.948C29.7635 3.42 30.0515 2.988 30.4235 2.652C30.7715 2.34 31.1975 2.094 31.7015 1.914C32.2055 1.734 32.7575 1.644 33.3575 1.644C33.8375 1.644 34.2755 1.722 34.6715 1.878C35.0795 2.034 35.4155 2.262 35.6795 2.562C35.8355 2.286 36.0275 2.04 36.2555 1.824C36.5195 1.56 36.8735 1.344 37.3175 1.176C37.7615 1.008 38.2295 0.923999 38.7215 0.923999C39.4655 0.923999 40.1075 1.122 40.6475 1.518ZM35.1215 5.712C35.1215 5.064 35.1515 4.518 35.2115 4.074C35.2715 3.63 35.3675 3.24 35.4995 2.904C35.2955 2.64 35.0315 2.43 34.7075 2.274C34.3955 2.118 34.0415 2.04 33.6455 2.04C33.0335 2.04 32.5835 2.232 32.2955 2.616C32.0075 2.988 31.8635 3.588 31.8635 4.416V5.712H35.1215ZM49.5234 2.022C50.1474 2.022 50.6454 2.082 51.0174 2.202C51.3894 2.322 51.7674 2.496 52.1514 2.724C52.2834 2.796 52.3974 2.856 52.4934 2.904C52.6014 2.952 52.6914 2.976 52.7634 2.976C52.8714 2.976 52.9554 2.916 53.0154 2.796C53.0754 2.664 53.1234 2.46 53.1594 2.184H53.5734C53.5134 2.988 53.4834 4.356 53.4834 6.288H53.0694C53.0214 5.64 52.8714 5.022 52.6194 4.434C52.3794 3.846 52.0314 3.372 51.5754 3.012C51.1314 2.64 50.6094 2.454 50.0094 2.454C49.4214 2.454 48.9414 2.622 48.5694 2.958C48.2094 3.282 48.0294 3.726 48.0294 4.29C48.0294 4.71 48.1194 5.076 48.2994 5.388C48.4794 5.7 48.7314 5.988 49.0554 6.252C49.3794 6.504 49.8774 6.852 50.5494 7.296L51.1254 7.692C51.8334 8.16 52.3914 8.568 52.7994 8.916C53.2074 9.264 53.5374 9.672 53.7894 10.14C54.0534 10.596 54.1854 11.13 54.1854 11.742C54.1854 12.51 53.9874 13.158 53.5914 13.686C53.1954 14.202 52.6554 14.592 51.9714 14.856C51.2994 15.12 50.5494 15.252 49.7214 15.252C49.0494 15.252 48.4914 15.192 48.0474 15.072C47.6034 14.952 47.1954 14.79 46.8234 14.586C46.5594 14.418 46.3554 14.334 46.2114 14.334C46.1034 14.334 46.0194 14.4 45.9594 14.532C45.8994 14.652 45.8514 14.85 45.8154 15.126H45.4014C45.4494 14.37 45.4734 12.75 45.4734 10.266H45.8874C45.9714 11.61 46.2714 12.702 46.7874 13.542C47.3034 14.37 48.0954 14.784 49.1634 14.784C49.8114 14.784 50.3454 14.61 50.7654 14.262C51.1854 13.914 51.3954 13.416 51.3954 12.768C51.3954 12.096 51.1794 11.52 50.7474 11.04C50.3154 10.56 49.6314 10.02 48.6954 9.42C47.9754 8.952 47.3994 8.544 46.9674 8.196C46.5354 7.848 46.1814 7.44 45.9054 6.972C45.6294 6.492 45.4914 5.94 45.4914 5.316C45.4914 4.596 45.6714 3.99 46.0314 3.498C46.4034 2.994 46.8954 2.622 47.5074 2.382C48.1194 2.142 48.7914 2.022 49.5234 2.022ZM59.1892 5.694H61.3132V6.054H59.1892V13.326C59.1892 13.686 59.2492 13.944 59.3692 14.1C59.5012 14.244 59.7052 14.316 59.9812 14.316C60.4972 14.316 60.9052 13.956 61.2052 13.236L61.5112 13.398C61.0552 14.634 60.2332 15.252 59.0452 15.252C58.2532 15.252 57.6532 15.048 57.2452 14.64C56.9932 14.388 56.8192 14.076 56.7232 13.704C56.6392 13.32 56.5972 12.798 56.5972 12.138V6.054H55.0852V5.694H56.5972V3.318C57.5932 3.318 58.4572 3.126 59.1892 2.742V5.694ZM71.0073 13.038C71.0073 13.59 71.0913 13.992 71.2593 14.244C71.4393 14.496 71.7393 14.622 72.1593 14.622V15C71.7873 14.964 71.4153 14.946 71.0433 14.946C69.9993 14.946 69.1233 15.03 68.4153 15.198V13.578C67.8633 14.694 66.8973 15.252 65.5173 15.252C64.6173 15.252 63.9633 15.018 63.5553 14.55C63.3633 14.322 63.2193 14.028 63.1233 13.668C63.0393 13.296 62.9973 12.81 62.9973 12.21V7.656C62.9973 7.104 62.9073 6.702 62.7273 6.45C62.5593 6.198 62.2653 6.072 61.8453 6.072V5.694C62.2173 5.73 62.5893 5.748 62.9613 5.748C64.0053 5.748 64.8813 5.664 65.5893 5.496V12.948C65.5893 13.452 65.6613 13.83 65.8053 14.082C65.9613 14.334 66.2493 14.46 66.6693 14.46C67.1493 14.46 67.5573 14.262 67.8933 13.866C68.2413 13.458 68.4153 12.96 68.4153 12.372V7.656C68.4153 7.104 68.3253 6.702 68.1453 6.45C67.9773 6.198 67.6833 6.072 67.2633 6.072V5.694C67.6473 5.73 68.0193 5.748 68.3793 5.748C69.4233 5.748 70.2993 5.664 71.0073 5.496V13.038ZM85.7213 1.518C85.9013 1.662 86.0453 1.854 86.1533 2.094C86.2733 2.322 86.3333 2.58 86.3333 2.868C86.3333 3.204 86.2133 3.498 85.9733 3.75C85.7333 3.99 85.4273 4.11 85.0553 4.11C84.6473 4.11 84.3173 3.996 84.0653 3.768C83.8133 3.54 83.6873 3.228 83.6873 2.832C83.6873 2.52 83.7773 2.244 83.9573 2.004C84.1373 1.764 84.4013 1.596 84.7493 1.5C84.7133 1.428 84.6353 1.368 84.5153 1.32C84.4073 1.272 84.2693 1.248 84.1013 1.248C83.6453 1.248 83.3213 1.404 83.1293 1.716C82.9973 1.896 82.9073 2.16 82.8593 2.508C82.8113 2.856 82.7873 3.378 82.7873 4.074V5.712H84.7133V6.072H82.7873V13.146C82.7873 13.698 82.9253 14.082 83.2013 14.298C83.4893 14.514 83.9153 14.622 84.4793 14.622V15L83.9753 14.982C82.6433 14.946 81.7793 14.928 81.3833 14.928C81.0233 14.928 80.2433 14.952 79.0433 15V14.622C79.4753 14.622 79.7753 14.532 79.9433 14.352C80.1113 14.16 80.1953 13.818 80.1953 13.326V6.072H76.9373V13.326C76.9373 13.818 77.0213 14.16 77.1893 14.352C77.3573 14.532 77.6573 14.622 78.0893 14.622V15L77.6933 14.982C76.6493 14.946 75.9893 14.928 75.7133 14.928C75.3053 14.928 74.4293 14.952 73.0853 15V14.622C73.5533 14.622 73.8773 14.532 74.0573 14.352C74.2493 14.16 74.3453 13.818 74.3453 13.326V6.072H73.0133V5.712H74.3453C74.3453 5.064 74.4413 4.476 74.6333 3.948C74.8373 3.42 75.1253 2.988 75.4973 2.652C75.8453 2.34 76.2713 2.094 76.7753 1.914C77.2793 1.734 77.8313 1.644 78.4313 1.644C78.9113 1.644 79.3493 1.722 79.7453 1.878C80.1533 2.034 80.4893 2.262 80.7533 2.562C80.9093 2.286 81.1013 2.04 81.3293 1.824C81.5933 1.56 81.9473 1.344 82.3913 1.176C82.8353 1.008 83.3033 0.923999 83.7953 0.923999C84.5393 0.923999 85.1813 1.122 85.7213 1.518ZM80.1953 5.712C80.1953 5.064 80.2253 4.518 80.2853 4.074C80.3453 3.63 80.4413 3.24 80.5733 2.904C80.3693 2.64 80.1053 2.43 79.7813 2.274C79.4693 2.118 79.1153 2.04 78.7193 2.04C78.1073 2.04 77.6573 2.232 77.3693 2.616C77.0813 2.988 76.9373 3.588 76.9373 4.416V5.712H80.1953Z" fill="black"/>
</svg>
