<svg width="16" height="16" viewBox="0 0 16 16" fill="none" xmlns="http://www.w3.org/2000/svg">
<path d="M6.00016 14.6668C6.36835 14.6668 6.66683 14.3684 6.66683 14.0002C6.66683 13.632 6.36835 13.3335 6.00016 13.3335C5.63197 13.3335 5.3335 13.632 5.3335 14.0002C5.3335 14.3684 5.63197 14.6668 6.00016 14.6668Z" stroke="#111111" stroke-linecap="round" stroke-linejoin="round"/>
<path d="M13.3335 14.6668C13.7017 14.6668 14.0002 14.3684 14.0002 14.0002C14.0002 13.632 13.7017 13.3335 13.3335 13.3335C12.9653 13.3335 12.6669 13.632 12.6669 14.0002C12.6669 14.3684 12.9653 14.6668 13.3335 14.6668Z" stroke="#111111" stroke-linecap="round" stroke-linejoin="round"/>
<path d="M0.666687 0.666748H3.33335L5.12002 9.59342C5.18098 9.90035 5.34796 10.1761 5.59172 10.3723C5.83548 10.5685 6.14049 10.6727 6.45335 10.6667H12.9334C13.2462 10.6727 13.5512 10.5685 13.795 10.3723C14.0387 10.1761 14.2057 9.90035 14.2667 9.59342L15.3334 4.00008H4.00002" stroke="#111111" stroke-linecap="round" stroke-linejoin="round"/>
</svg>
