<svg width="16" height="15" viewBox="0 0 16 15" fill="none" xmlns="http://www.w3.org/2000/svg">
<path d="M7.73763 0.473218C7.85187 0.267177 8.14813 0.267177 8.26237 0.473218L10.4479 4.41509C10.4909 4.49263 10.566 4.54718 10.653 4.56411L15.0773 5.42457C15.3086 5.46954 15.4001 5.75131 15.2395 5.92363L12.1659 9.2203C12.1054 9.28514 12.0768 9.37341 12.0876 9.46141L12.6364 13.9351C12.6651 14.1689 12.4254 14.3431 12.2119 14.2435L8.12676 12.3391C8.0464 12.3016 7.9536 12.3016 7.87324 12.3391L3.78813 14.2435C3.5746 14.3431 3.33492 14.1689 3.36361 13.9351L3.91245 9.46141C3.92324 9.37341 3.89456 9.28514 3.83411 9.2203L0.760527 5.92363C0.599872 5.75131 0.691424 5.46954 0.922682 5.42457L5.347 4.56411C5.43402 4.54718 5.5091 4.49263 5.55209 4.41509L7.73763 0.473218Z" fill="#F2C94C"/>
</svg>
